<?xml version="1.0" encoding="utf-8" ?>
<svg xmlns="http://www.w3.org/2000/svg" width="40" height="40" viewBox="0 0 128 128">
	<path fill="#B22D47" transform="matrix(0.172973 0 0 0.172973 0 -1.52588e-05)" d="M641.952 291.51Q643.701 297.215 644.66 303.104L644.387 303.02C644.229 302.973 644.064 302.948 643.914 302.88C642.094 302.057 640.955 299.11 640.104 297.386C640.748 297.31 640.806 297.188 641.311 296.823C642.001 295.289 641.585 293.83 641.835 292.216L641.952 291.51Z"/>
	<path fill="#FB6746" transform="matrix(0.172973 0 0 0.172973 0 -1.52588e-05)" d="M104.329 298.016C106.184 299.342 107.513 301.254 108.804 303.11C112.216 308.014 114.915 313.466 118.05 318.557C121.408 324.01 125.281 329.285 128.442 334.84C119.752 339.261 108.391 345.141 98.53 345.055C98.614 329.141 101.277 313.573 104.329 298.016Z"/>
	<path fill="#D5394B" transform="matrix(0.172973 0 0 0.172973 0 -1.52588e-05)" d="M107.396 284.26C111.728 287.614 114.159 293.504 117.236 297.95C121.457 306.146 127.599 313.882 132.693 321.581C141.358 334.678 149.739 348.008 158.549 361.003C159.539 362.556 160.471 364.312 161.69 365.688C163.086 368.95 165.729 372.086 167.725 375.062L178.889 391.84Q186.335 402.963 193.633 414.185C196.544 418.713 199.255 423.542 202.383 427.909C205.695 424.848 209.388 422.003 212.412 418.663L214.185 424.47C215.505 428.323 217.066 432.024 218.689 435.756C218.564 435.876 218.434 435.991 218.314 436.115C215.913 438.606 214.383 445.874 212.835 449.28C204.818 466.924 186.114 477.307 167.288 478.627Q165.829 478.732 164.367 478.757Q162.905 478.781 161.444 478.726Q159.982 478.67 158.526 478.534Q157.07 478.398 155.624 478.183Q154.177 477.967 152.745 477.672Q151.312 477.377 149.898 477.004Q148.484 476.631 147.093 476.18Q145.702 475.73 144.337 475.204C139.085 473.238 134.125 470.499 129.37 467.546C127.141 466.162 124.876 464.389 122.516 463.272C121.611 462.843 121.39 462.725 120.403 462.841C117.868 457.924 116.002 452.22 114.104 447.022C105.449 423.321 100.538 399.737 98.7917 374.61C98.2995 364.738 98.4004 354.929 98.53 345.055C108.391 345.141 119.752 339.261 128.442 334.84C125.281 329.285 121.408 324.01 118.05 318.557C114.915 313.466 112.216 308.014 108.804 303.11C107.513 301.254 106.184 299.342 104.329 298.016Q105.445 291.045 107.396 284.26Z"/>
	<path fill="#B22D47" transform="matrix(0.172973 0 0 0.172973 0 -1.52588e-05)" d="M158.549 361.003C159.539 362.556 160.471 364.312 161.69 365.688C163.086 368.95 165.729 372.086 167.725 375.062L178.889 391.84Q186.335 402.963 193.633 414.185C196.544 418.713 199.255 423.542 202.383 427.909C205.695 424.848 209.388 422.003 212.412 418.663L214.185 424.47C209.7 425.679 206.238 429.398 202.858 432.404C201.322 433.77 198.683 436.47 196.531 436.344C194.734 435.086 193.37 433.623 192.054 431.888C188.036 426.592 184.752 420.524 181.051 414.973Q163.878 389.329 147.481 363.182C150.976 361.905 154.815 360.94 158.549 361.003Z"/>
	<path fill="#F43F45" transform="matrix(0.172973 0 0 0.172973 0 -1.52588e-05)" d="M128.442 334.84C131.344 338.289 133.653 342.52 136.094 346.315Q141.643 355.055 147.685 363.461C136.045 367.855 123.47 371.116 111.211 373.172C107.101 373.861 102.872 373.853 98.7917 374.61C98.2995 364.738 98.4004 354.929 98.53 345.055C108.391 345.141 119.752 339.261 128.442 334.84Z"/>
	<path fill="#6A1755" transform="matrix(0.172973 0 0 0.172973 0 -1.52588e-05)" d="M613.442 315.947C616.41 309.847 620.235 304.145 623.671 298.299C626.992 292.645 629.894 286.88 632.637 280.926C635.471 286.193 637.615 291.937 640.104 297.386C640.955 299.11 642.094 302.057 643.914 302.88C644.064 302.948 644.229 302.973 644.387 303.02L644.66 303.104C647.671 315.08 649.094 327.024 650.087 339.323Q650.289 341.867 650.442 344.415Q650.595 346.963 650.698 349.513Q650.801 352.064 650.854 354.615Q650.907 357.167 650.91 359.72Q650.913 362.272 650.866 364.824Q650.819 367.376 650.723 369.927Q650.626 372.477 650.479 375.025Q650.333 377.574 650.136 380.118Q649.94 382.663 649.694 385.204Q649.448 387.744 649.152 390.279Q648.856 392.815 648.511 395.344Q648.166 397.872 647.771 400.394Q647.377 402.916 646.933 405.429Q646.489 407.943 645.996 410.447Q645.503 412.952 644.961 415.446Q644.419 417.94 643.829 420.423Q643.238 422.906 642.599 425.378Q641.96 427.849 641.273 430.307Q640.586 432.765 639.851 435.209Q639.116 437.653 638.333 440.083Q637.551 442.512 636.72 444.926Q635.89 447.34 635.013 449.737Q634.136 452.133 633.212 454.513Q632.288 456.892 631.318 459.253Q630.348 461.614 629.332 463.955Q628.316 466.297 627.254 468.618Q626.192 470.939 625.085 473.239Q623.978 475.538 622.826 477.816Q621.675 480.094 620.479 482.349Q619.283 484.604 618.043 486.835Q616.803 489.066 615.519 491.272Q614.236 493.478 612.91 495.659C608.159 503.598 602.663 511.078 597.198 518.533C587.674 533.161 574.089 546.212 561.083 557.729C558.551 559.972 556.04 562.457 553.359 564.508C551.975 562.243 549.787 560.04 548.116 557.93C541.245 549.249 533.408 541.095 527.411 531.797C520.41 523.062 503.053 506.57 499.459 496.922L498.075 495.031C493.262 489.394 486.341 483.113 482.536 476.945C484.489 473.657 486.506 471.32 489.472 468.898C490.652 467.934 492.215 466.883 493.115 465.657C495.366 462.591 496.478 457.83 497.359 454.191C497.193 453.741 496.976 453.235 496.874 452.76C496.29 450.039 503.673 437.929 505.479 435Q508.152 441.393 509.879 448.103C514.921 437.751 519.455 427.217 523.008 416.242L521.033 413.557C524.251 407.758 527.158 401.79 530.118 395.856L532.939 405.593C535.703 401.296 537.888 396.937 539.094 391.949C539.562 392.711 539.669 392.944 540.434 393.378C544.063 391.526 549.724 382.683 552.28 379.194L546.734 377.963C550.789 372.707 554.516 367.298 558.103 361.713C556.479 361.966 554.834 361.988 553.194 362.056C558.103 353.157 563.628 344.492 567.683 335.159C571.807 342.858 575.095 351.039 578.693 358.996C580.916 356.21 582.847 353.326 584.764 350.329L578.798 352.506Q585.653 343.091 592.119 333.405L585.817 335.5C591.258 325.044 596.635 314.703 601.27 303.858C604.892 311.961 607.947 320.324 611.145 328.602C614.246 323.818 617.104 318.911 619.954 313.974L613.442 315.947Z"/>
	<path fill="#370846" transform="matrix(0.172973 0 0 0.172973 0 -1.52588e-05)" d="M542.398 435.582C544.06 439.264 545.686 442.989 547.034 446.799C548.108 449.839 548.876 453.128 550.199 456.061C550.473 456.668 550.811 457.088 551.265 457.566C553.806 452.525 556.271 447.417 559.116 442.54C566.376 457.42 577.41 470.192 584.483 485.104C581.057 484.024 577.799 482.659 574.5 481.25C576.898 485.204 591.335 506.808 591.604 509.415C591.634 509.704 591.515 509.989 591.471 510.275L590.043 511.442C590.005 512.436 590.427 512.936 591.068 513.693C592.785 515.719 595.416 516.689 597.198 518.533C587.674 533.161 574.089 546.212 561.083 557.729C558.551 559.972 556.04 562.457 553.359 564.508C551.975 562.243 549.787 560.04 548.116 557.93C541.245 549.249 533.408 541.095 527.411 531.797C520.41 523.062 503.053 506.57 499.459 496.922L498.075 495.031C498.656 493.555 499.101 492.143 500.211 490.972C501.677 489.762 502.651 488.241 503.491 486.556C505.602 482.322 506.614 477.609 508.362 473.223C511.526 465.284 515.506 457.59 519.704 450.154C519.712 450.217 519.723 450.28 519.729 450.343C520.617 459.432 524.768 468.162 528.481 476.411L529.175 471.864C529.997 471.112 530.742 470.371 531.455 469.515C530.927 468.97 531.019 469.179 530.776 468.585C530.216 467.215 532.914 466.272 533.505 465.014L533.028 464.24C532.858 463.045 533.157 462.042 533.434 460.881C534.364 456.995 535.225 457.078 537.044 453.963C537.456 453.258 537.506 453.258 537.299 452.435L535.821 451.616C535.734 451.404 535.582 451.208 535.559 450.98C535.505 450.441 536.394 449.023 536.655 448.515C538.846 444.254 540.945 440.171 542.398 435.582Z"/>
	<path fill="#6A1755" transform="matrix(0.172973 0 0 0.172973 0 -1.52588e-05)" d="M500.211 490.972C501.075 491.876 501.819 492.503 502.003 493.803C501.722 495.302 500.644 496.094 499.459 496.922L498.075 495.031C498.656 493.555 499.101 492.143 500.211 490.972Z"/>
	<path fill="#F43F45" transform="matrix(0.172973 0 0 0.172973 0 -1.52588e-05)" d="M498.264 114.589C548.063 137.683 590.196 179.919 616.442 227.812C623.712 241.078 629.567 254.837 634.766 269.025C636.889 274.818 641.183 285.626 641.952 291.51L641.835 292.216C641.585 293.83 642.001 295.289 641.311 296.823C640.806 297.188 640.748 297.31 640.104 297.386C637.615 291.937 635.471 286.193 632.637 280.926C629.894 286.88 626.992 292.645 623.671 298.299C620.235 304.145 616.41 309.847 613.442 315.947L619.954 313.974C617.104 318.911 614.246 323.818 611.145 328.602C607.947 320.324 604.892 311.961 601.27 303.858C596.635 314.703 591.258 325.044 585.817 335.5L592.119 333.405Q585.653 343.091 578.798 352.506L584.764 350.329C582.847 353.326 580.916 356.21 578.693 358.996C575.095 351.039 571.807 342.858 567.683 335.159C563.628 344.492 558.103 353.157 553.194 362.056C554.834 361.988 556.479 361.966 558.103 361.713C554.516 367.298 550.789 372.707 546.734 377.963L552.28 379.194C549.724 382.683 544.063 391.526 540.434 393.378C539.669 392.944 539.562 392.711 539.094 391.949C542.151 378.91 542.236 362.359 540.936 349.015C536.942 308.011 514.955 270.836 485.948 242.315C478.02 234.52 469.346 227.623 460.759 220.579C450.777 225.212 440.445 229.16 430.369 233.597C419.88 238.216 409.592 243.333 399.048 247.814C397.385 248.521 394.596 250.014 392.772 249.975C391.466 249.947 390.549 249.555 389.64 248.62C389.223 247.119 389.742 246.185 390.383 244.783C392.831 239.434 396.094 234.276 398.986 229.141C404.728 218.942 410.403 208.779 415.214 198.096C411.53 197.101 407.762 196.524 403.981 196.059C405.054 194.542 406.188 193.943 407.881 193.279C414.31 190.76 463.4 178.322 466.836 179.839L468.028 180.89C468.544 180.488 468.995 180.017 469.463 179.561C469.822 178.492 470.918 177.682 471.797 177.046C473.41 175.56 474.803 174.179 476.092 172.389C475.784 171.278 475.56 170.943 475.937 169.827C475.462 169.108 474.9 168.343 474.555 167.55C473.885 166.016 474.979 164.006 475.536 162.556C471.653 158.146 464.855 154.207 458.942 153.604C454.429 153.143 448.535 155 444.998 157.789C442.648 155.297 441.463 152.778 439.639 149.979C439.276 149.421 439.531 149.628 438.763 149.466C435.669 152.352 433.688 150.668 430.107 151.216C428.796 151.416 428.599 152.599 427.782 153.491C425.776 153.188 424.469 153.219 422.484 153.635C419.96 152.533 417.526 151.332 415.093 150.042C416.192 149.074 417.208 147.996 418.245 146.962C414.366 144.707 408.644 143.966 405.432 140.86C405.087 139.086 405.698 137.18 406.487 135.602C407.896 134.439 432.812 131.897 436.99 131.205C446.48 129.634 455.815 127.486 465.22 125.493C473.937 123.646 486.583 121.733 494.488 117.896C496.232 117.049 497.145 116.152 498.264 114.589Z"/>
	<path fill="#FB6746" transform="matrix(0.172973 0 0 0.172973 0 -1.52588e-05)" d="M478.492 164.706C478.615 164.653 478.738 164.601 478.859 164.545C479.647 164.186 480.425 163.822 481.026 163.183C483.46 160.594 485.313 157.023 487.361 154.1C489.673 150.802 492.228 147.698 494.591 144.455C496.137 142.334 497.193 138.757 499.857 137.846C499.111 139.863 497.267 141.18 496.279 143.044C493.285 148.689 488.696 153.809 485.059 159.079C482.061 163.424 479.562 168.405 476.092 172.389C475.784 171.278 475.56 170.943 475.937 169.827C476.905 169.371 477.227 169.061 477.622 168.041C478.025 167.005 478.234 165.79 478.492 164.706Z"/>
	<path fill="#FB6746" transform="matrix(0.172973 0 0 0.172973 0 -1.52588e-05)" d="M471.797 177.046C471.936 177.045 472.075 177.046 472.214 177.044C477.114 176.969 482.147 176.038 487.025 175.484C494.82 174.598 502.419 174.052 510.273 174.093C512.237 174.103 515.006 173.825 516.855 174.373C514.588 175.667 499.818 175.299 496.005 175.617C487.438 176.333 477.612 176.816 469.463 179.561C469.822 178.492 470.918 177.682 471.797 177.046Z"/>
	<path fill="#FB6746" transform="matrix(0.172973 0 0 0.172973 0 -1.52588e-05)" d="M466.836 179.839L468.028 180.89C463.003 185.752 459.039 191.994 454.241 197.13C450.897 200.71 446.737 203.467 443.506 207.171C437.493 214.065 424.971 231.189 418.028 235.122C420.583 230.669 424.575 227.102 427.994 223.322C433.133 217.639 437.843 211.531 443.103 205.965C449.595 199.094 462.641 187.861 466.836 179.839Z"/>
	<path fill="#370846" transform="matrix(0.172973 0 0 0.172973 0 -1.52588e-05)" d="M120.403 462.841C121.39 462.725 121.611 462.843 122.516 463.272C124.876 464.389 127.141 466.162 129.37 467.546C134.125 470.499 139.085 473.238 144.337 475.204Q145.702 475.73 147.093 476.18Q148.484 476.631 149.898 477.004Q151.312 477.377 152.745 477.672Q154.177 477.967 155.624 478.183Q157.07 478.398 158.526 478.534Q159.982 478.67 161.444 478.726Q162.905 478.781 164.367 478.757Q165.829 478.732 167.288 478.627C186.114 477.307 204.818 466.924 212.835 449.28C214.383 445.874 215.913 438.606 218.314 436.115C218.434 435.991 218.564 435.876 218.689 435.756C223.372 445.161 228.125 454.367 234.009 463.095Q234.988 464.542 235.996 465.969Q237.005 467.396 238.042 468.803Q239.079 470.209 240.144 471.594Q241.21 472.979 242.303 474.342Q243.397 475.705 244.518 477.045Q245.639 478.385 246.787 479.703Q247.935 481.02 249.109 482.313Q250.284 483.607 251.485 484.876Q252.685 486.146 253.912 487.391Q255.138 488.635 256.389 489.855Q257.641 491.074 258.917 492.268Q260.193 493.462 261.493 494.63Q262.793 495.797 264.116 496.938Q265.44 498.079 266.786 499.193Q268.132 500.306 269.501 501.392Q270.87 502.478 272.261 503.536Q273.651 504.594 275.063 505.624Q276.475 506.653 277.908 507.654Q279.34 508.654 280.793 509.625Q282.246 510.596 283.718 511.538Q285.19 512.479 286.681 513.39Q288.172 514.301 289.681 515.182Q291.19 516.062 292.717 516.912Q294.244 517.762 295.787 518.58Q297.331 519.399 298.891 520.186Q300.451 520.973 302.027 521.728Q303.603 522.483 305.194 523.205Q306.785 523.928 308.39 524.618Q309.995 525.308 311.614 525.966Q313.233 526.623 314.865 527.247Q316.497 527.872 318.142 528.463Q319.786 529.054 321.442 529.611C330.884 532.763 340.737 535.331 350.597 536.756C356.615 537.626 362.707 538.011 368.748 538.69L369.046 538.391C373.591 533.739 386.542 512.558 391.556 512.397C393.132 512.346 394.528 513.953 395.456 515.044C398.213 518.282 413.07 540.446 414.59 540.797C416.345 544.592 425.797 555.88 428.945 560.08Q444.514 580.466 459.129 601.547C461.311 604.651 464.647 610.784 467.603 612.845C427.255 625.692 385.117 631.927 342.809 626.82C334.15 625.775 325.611 624.176 317.056 622.508C313.315 621.779 309.547 620.818 305.782 620.261C292.473 617.962 279.22 612.774 266.791 607.644C234.76 593.428 209.894 578.105 184.689 553.704C178.754 548.851 173.799 543.254 168.696 537.569C148.963 515.587 131.693 490.264 120.403 462.841Z"/>
	<path fill="#6A1755" transform="matrix(0.172973 0 0 0.172973 0 -1.52588e-05)" d="M330.193 550.926L333.919 551.119C334.218 551.608 334.108 551.284 333.931 552.116C333.509 554.097 333.327 555.021 334.103 556.928C334.187 557.135 334.286 557.507 334.352 557.725L334.522 558.281C333.723 559.203 331.506 559.217 330.276 559.362C329.877 558.597 329.99 558.609 330.101 557.805C330.434 557.395 330.827 556.967 331.098 556.515C332.408 554.329 330.561 553.602 330.268 551.555C330.238 551.346 330.218 551.136 330.193 550.926Z"/>
	<path fill="#200231" transform="matrix(0.172973 0 0 0.172973 0 -1.52588e-05)" d="M280.78 608.818C281.758 605.983 284.998 601.291 285.304 599.413C285.196 599.269 285.085 599.127 284.979 598.981C284.513 598.341 284.678 598.606 284.353 597.853C285.399 595.582 287.578 594.094 288.749 591.906C291.117 587.483 292.737 582.287 294.535 577.599C297.365 583.608 301.04 590.503 302.176 597.081C301.342 598.015 300.77 597.106 300.205 598.355C300.504 600.191 301.946 601.329 303.207 602.6C303.217 603.718 303.212 604.896 303.449 605.993C304.131 609.163 308.189 617.248 306.382 619.986L305.782 620.261C292.473 617.962 279.22 612.774 266.791 607.644C267.814 602.481 272.711 596.138 274.994 591.121C277.936 596.81 278.648 602.849 280.78 608.818Z"/>
	<path fill="#6A1755" transform="matrix(0.172973 0 0 0.172973 0 -1.52588e-05)" d="M120.403 462.841C121.39 462.725 121.611 462.843 122.516 463.272C124.876 464.389 127.141 466.162 129.37 467.546C134.125 470.499 139.085 473.238 144.337 475.204Q145.702 475.73 147.093 476.18Q148.484 476.631 149.898 477.004Q151.312 477.377 152.745 477.672Q154.177 477.967 155.624 478.183Q157.07 478.398 158.526 478.534Q159.982 478.67 161.444 478.726Q162.905 478.781 164.367 478.757Q165.829 478.732 167.288 478.627C186.114 477.307 204.818 466.924 212.835 449.28C214.383 445.874 215.913 438.606 218.314 436.115C218.434 435.991 218.564 435.876 218.689 435.756C223.372 445.161 228.125 454.367 234.009 463.095Q234.988 464.542 235.996 465.969Q237.005 467.396 238.042 468.803Q239.079 470.209 240.144 471.594Q241.21 472.979 242.303 474.342Q243.397 475.705 244.518 477.045Q245.639 478.385 246.787 479.703Q247.935 481.02 249.109 482.313Q250.284 483.607 251.485 484.876Q252.685 486.146 253.912 487.391Q255.138 488.635 256.389 489.855Q257.641 491.074 258.917 492.268Q260.193 493.462 261.493 494.63Q262.793 495.797 264.116 496.938Q265.44 498.079 266.786 499.193Q268.132 500.306 269.501 501.392Q270.87 502.478 272.261 503.536Q273.651 504.594 275.063 505.624Q276.475 506.653 277.908 507.654Q279.34 508.654 280.793 509.625Q282.246 510.596 283.718 511.538Q285.19 512.479 286.681 513.39Q288.172 514.301 289.681 515.182Q291.19 516.062 292.717 516.912Q294.244 517.762 295.787 518.58Q297.331 519.399 298.891 520.186Q300.451 520.973 302.027 521.728Q303.603 522.483 305.194 523.205Q306.785 523.928 308.39 524.618Q309.995 525.308 311.614 525.966Q313.233 526.623 314.865 527.247Q316.497 527.872 318.142 528.463Q319.786 529.054 321.442 529.611C330.884 532.763 340.737 535.331 350.597 536.756C356.615 537.626 362.707 538.011 368.748 538.69C362.061 548.14 354.66 556.997 348.115 566.587C347.081 564.57 345.5 562.9 344.769 560.77C345.006 559.538 345.64 559.278 346.567 558.467C344.542 551.966 342.114 545.745 339.318 539.542C338.014 543.301 336.425 546.593 334.309 549.965C332.987 550.195 331.669 550.444 330.333 550.581C329.177 545.872 327.061 541.817 324.593 537.668C322.747 542.235 320.074 546.612 318.544 551.268C317.086 555.705 316.899 560.486 314.888 564.769C314.209 566.214 313.293 566.968 311.889 567.658L311.752 568.198C312.283 568.878 312.63 569.103 312.532 570.02C312.446 570.824 311.864 571.596 311.473 572.286C311.247 572.684 311.033 573.091 310.811 573.493C310.413 572.117 309.992 570.744 309.654 569.352C309.66 568.23 309.822 567.124 309.958 566.012C309.277 565.323 308.685 564.507 308.07 563.757C305.791 558.401 304.469 552.523 302.379 547.045C299.834 553.028 298.897 559.271 295.1 564.748C294.476 564.029 293.658 563.252 293.459 562.294C293.385 561.938 293.386 561.57 293.326 561.212C293.169 560.272 293.2 560.064 292.562 559.344C291.87 559.187 291.259 559.051 290.625 558.724L290.724 558.299C291.702 558.047 292.679 557.905 293.449 557.209C293.146 556.42 291.315 556.172 290.486 555.312C290.157 553.931 290.397 552.544 290.73 551.176C290.852 550.679 285.964 541.057 285.339 539.675C281.364 547.941 280.233 552.393 279.301 561.689C279.843 561.885 280.274 562.092 280.757 562.405C280.772 562.538 280.8 562.669 280.802 562.802C280.819 564.285 279.67 565.297 278.728 566.294L278.358 566.68C278.635 567.434 279.154 567.852 279.705 568.419C280.05 570.517 277.594 572.751 277.303 575.007C277.178 575.984 277.007 576.954 276.857 577.928C276.575 575.597 276.843 573.02 275.598 570.953C275.309 570.782 275.012 570.618 274.739 570.423C273.979 569.88 273.526 569.227 273.339 568.312L274.274 567.328C274.339 567.073 274.511 566.824 274.47 566.564C274.206 564.894 271.604 560.407 270.838 558.49C269.446 555.004 268.344 551.379 267.184 547.81C265.513 553.221 264.134 558.629 260.6 563.171C261.534 563.711 261.954 563.723 262.278 564.783C261.88 566.423 260.816 567.685 260.176 569.238C259.35 568.469 258.084 567.563 257.565 566.569L258.06 566.116C258.459 565.747 258.761 565.424 259.037 564.95L258.185 564.614C258.081 564.52 257.969 564.434 257.872 564.332C256.425 562.81 255.262 560.15 255.263 558.054C255.873 557.008 256.122 557.084 257.229 556.7C257.161 555.869 254.896 555.849 254.292 554.669C254.648 549.747 251.486 544.51 249.513 540.057C247.911 544.716 245.772 549.615 243.3 553.882L243.012 554.374C243.233 554.867 243.122 554.662 243.43 555.152C244.097 556.212 241.008 558.11 240.762 559.471C241.349 559.743 241.742 559.88 242.119 560.436C242.975 561.697 241.558 565.346 241.181 566.742C238.904 566.515 235.883 566.458 233.85 565.411L234.069 565.016C234.875 565.036 235.232 565.051 236 564.752C235.609 563.882 234.057 563.202 233.211 562.683C234.035 561.672 235.231 560.467 235.632 559.222C235.806 558.68 235.729 558.828 235.439 558.239C233.705 557.586 232.37 557.089 231.094 555.697L231.141 555.251L232.85 554.942L233.006 554.514C232.356 553.871 231.699 553.37 231.533 552.426C232.322 551.681 233.322 551.362 234.31 550.957C232.464 549.133 230.051 548.098 228.208 546.346C227.67 545.836 227.46 545.716 227.465 544.955C228.051 544.79 228.582 544.617 229.135 544.359C228.943 543.412 227.972 543.359 227.378 542.553L228.383 541.446C228.016 540.324 226.092 540.048 225.878 539.115C225.65 538.122 226.729 536.503 226.398 535.13C225.861 532.905 223.516 529.925 222.482 527.778C221.178 525.071 220.193 522.192 219.168 519.37C216.585 525.31 214.496 531.468 212.092 537.481C211.602 538.707 211.333 539.278 211.586 540.621C211.734 541.41 211.866 541.757 211.553 542.541C210.577 543.364 209.32 543.348 208.1 543.498C208.704 544.415 209.194 545.027 209.156 546.178C208.627 546.966 208.26 547.306 207.307 547.54C205.65 547.947 203.649 547.84 201.934 547.857C203.79 547.066 205.695 546.381 207.297 545.132L207.467 544.528C204.168 542.073 198.655 527.042 197.204 522.887C195.089 528.674 193.759 534.942 191.339 540.557C190.8 539.483 190.277 537.899 189.288 537.255C188.83 538.075 188.82 539.074 189.005 539.979C189.202 540.944 189.722 541.981 190.106 542.888C189.547 545.156 183.688 544.898 185.767 550.713C185.933 551.176 185.993 551.575 186.015 552.065C185.583 552.622 185.156 553.175 184.689 553.704C178.754 548.851 173.799 543.254 168.696 537.569C148.963 515.587 131.693 490.264 120.403 462.841Z"/>
	<defs>
		<linearGradient id="gradient_0" gradientUnits="userSpaceOnUse" x1="234.38875" y1="147.10452" x2="360.94278" y2="280.87479">
			<stop offset="0" stop-color="#FFA132"/>
			<stop offset="1" stop-color="#FF5239"/>
		</linearGradient>
	</defs>
	<path fill="url(#gradient_0)" transform="matrix(0.172973 0 0 0.172973 0 -1.52588e-05)" d="M282.662 100.945Q285.93 99.8149 289.225 98.7658Q292.52 97.7167 295.84 96.7494Q299.16 95.782 302.503 94.897Q305.846 94.0119 309.21 93.2097Q312.574 92.4075 315.956 91.6886Q319.339 90.9697 322.738 90.3346Q326.137 89.6995 329.551 89.1485Q332.965 88.5975 336.391 88.1311Q339.818 87.6646 343.255 87.2829Q346.692 86.9012 350.137 86.6045Q353.582 86.3079 357.034 86.0964Q360.485 85.8849 363.941 85.7587Q367.397 85.6325 370.855 85.5918Q374.313 85.551 377.77 85.5956Q381.228 85.6403 384.684 85.7703Q388.139 85.9003 391.591 86.1157Q395.042 86.3311 398.487 86.6316Q401.932 86.9321 405.368 87.3177Q408.805 87.7032 412.231 88.1735Q415.657 88.6438 419.07 89.1986Q422.483 89.7534 425.882 90.3923Q429.28 91.0312 432.662 91.7539Q436.044 92.4766 439.407 93.2825Q442.769 94.0885 446.111 94.9773Q449.453 95.8661 452.772 96.8372Q456.091 97.8083 459.385 98.861Q462.679 99.9138 465.946 101.048Q469.213 102.181 472.451 103.396Q475.689 104.61 478.895 105.903Q482.102 107.197 485.276 108.57Q488.45 109.942 491.59 111.393Q494.729 112.843 497.831 114.371C497.977 114.441 498.123 114.51 498.264 114.589C497.145 116.152 496.232 117.049 494.488 117.896C486.583 121.733 473.937 123.646 465.22 125.493C455.815 127.486 446.48 129.634 436.99 131.205C432.812 131.897 407.896 134.439 406.487 135.602C405.698 137.18 405.087 139.086 405.432 140.86C408.644 143.966 414.366 144.707 418.245 146.962C417.208 147.996 416.192 149.074 415.093 150.042C417.526 151.332 419.96 152.533 422.484 153.635C424.469 153.219 425.776 153.188 427.782 153.491C428.599 152.599 428.796 151.416 430.107 151.216C433.688 150.668 435.669 152.352 438.763 149.466C439.531 149.628 439.276 149.421 439.639 149.979C441.463 152.778 442.648 155.297 444.998 157.789C448.535 155 454.429 153.143 458.942 153.604C464.855 154.207 471.653 158.146 475.536 162.556C474.979 164.006 473.885 166.016 474.555 167.55C474.9 168.343 475.462 169.108 475.937 169.827C475.56 170.943 475.784 171.278 476.092 172.389C474.803 174.179 473.41 175.56 471.797 177.046C470.918 177.682 469.822 178.492 469.463 179.561C468.995 180.017 468.544 180.488 468.028 180.89L466.836 179.839C463.4 178.322 414.31 190.76 407.881 193.279C406.188 193.943 405.054 194.542 403.981 196.059C349.843 191.955 306.554 201.242 264.59 237.216C246.521 252.706 222.822 282.884 215.028 305.357C222.002 311.401 229.343 316.891 236.573 322.616L259.602 341.113C266.583 346.628 273.867 351.926 280.339 358.048C273.958 365 266.449 370.837 259.276 376.94L229.269 402.541C223.5 407.454 216.987 412.147 212.087 417.937L212.412 418.663C209.388 422.003 205.695 424.848 202.383 427.909C199.255 423.542 196.544 418.713 193.633 414.185Q186.335 402.963 178.889 391.84L167.725 375.062C165.729 372.086 163.086 368.95 161.69 365.688C160.471 364.312 159.539 362.556 158.549 361.003C149.739 348.008 141.358 334.678 132.693 321.581C127.599 313.882 121.457 306.146 117.236 297.95C114.159 293.504 111.728 287.614 107.396 284.26C109.586 279.058 110.829 273.172 112.671 267.792C115.813 258.618 119.805 249.653 124.032 240.934Q125.521 237.886 127.085 234.875Q128.648 231.864 130.286 228.892Q131.923 225.921 133.633 222.99Q135.342 220.06 137.124 217.172Q138.905 214.285 140.756 211.442Q142.608 208.599 144.529 205.803Q146.45 203.006 148.439 200.258Q150.428 197.51 152.485 194.811Q154.541 192.112 156.663 189.465Q158.784 186.818 160.971 184.223Q163.157 181.629 165.406 179.089Q167.656 176.549 169.967 174.066Q172.278 171.582 174.649 169.156Q177.021 166.729 179.451 164.362Q181.882 161.995 184.37 159.688Q186.857 157.382 189.401 155.137Q191.945 152.892 194.543 150.71Q197.141 148.529 199.793 146.411Q202.444 144.294 205.146 142.243Q207.848 140.192 210.6 138.207Q213.352 136.223 216.152 134.307Q218.952 132.391 221.798 130.544Q224.644 128.698 227.535 126.921Q230.425 125.145 233.359 123.441Q236.292 121.736 239.266 120.104Q242.241 118.472 245.255 116.914Q248.268 115.356 251.319 113.872Q254.37 112.388 257.457 110.98Q260.543 109.572 263.664 108.24Q266.784 106.907 269.936 105.653Q273.088 104.398 276.27 103.221Q279.452 102.043 282.662 100.945Z"/>
	<path fill="#FEA739" transform="matrix(0.172973 0 0 0.172973 0 -1.52588e-05)" d="M201.429 242.148Q201.968 242.108 202.508 242.077C205.045 241.94 206.884 242.383 208.826 244.145C209.016 244.621 209.24 244.92 209.144 245.446C208.756 247.571 205.687 249.169 204.006 250.336C203.019 251.201 202.166 252.048 200.92 252.508C199.841 252.418 199.825 252.415 199.032 251.681C198.715 250.828 198.551 250.166 198.58 249.247C198.664 246.571 199.499 244.025 201.429 242.148Z"/>
	<path fill="#FB6746" transform="matrix(0.172973 0 0 0.172973 0 -1.52588e-05)" d="M161.69 365.688L162.392 365.684C166.057 371.18 169.839 376.65 173.399 382.196C177.275 388.235 180.901 394.449 185.48 399.994C182.839 395.315 176.591 387.296 174.954 383.237L175.167 383.147C176.584 384.903 177.684 386.941 178.981 388.8C184.824 397.178 190.059 405.981 195.704 414.494C197.474 417.163 199.287 420.566 201.434 422.909C201.999 423.526 202.601 423.673 203.392 423.813C206.636 423.23 208.929 419.356 212.087 417.937L212.412 418.663C209.388 422.003 205.695 424.848 202.383 427.909C199.255 423.542 196.544 418.713 193.633 414.185Q186.335 402.963 178.889 391.84L167.725 375.062C165.729 372.086 163.086 368.95 161.69 365.688Z"/>
	<path fill="#FEA739" transform="matrix(0.172973 0 0 0.172973 0 -1.52588e-05)" d="M107.396 284.26C109.586 279.058 110.829 273.172 112.671 267.792C115.813 258.618 119.805 249.653 124.032 240.934Q125.521 237.886 127.085 234.875Q128.648 231.864 130.286 228.892Q131.923 225.921 133.633 222.99Q135.342 220.06 137.124 217.172Q138.905 214.285 140.756 211.442Q142.608 208.599 144.529 205.803Q146.45 203.006 148.439 200.258Q150.428 197.51 152.485 194.811Q154.541 192.112 156.663 189.465Q158.784 186.818 160.971 184.223Q163.157 181.629 165.406 179.089Q167.656 176.549 169.967 174.066Q172.278 171.582 174.649 169.156Q177.021 166.729 179.451 164.362Q181.882 161.995 184.37 159.688Q186.857 157.382 189.401 155.137Q191.945 152.892 194.543 150.71Q197.141 148.529 199.793 146.411Q202.444 144.294 205.146 142.243Q207.848 140.192 210.6 138.207Q213.352 136.223 216.152 134.307Q218.952 132.391 221.798 130.544Q224.644 128.698 227.535 126.921Q230.425 125.145 233.359 123.441Q236.292 121.736 239.266 120.104Q242.241 118.472 245.255 116.914Q248.268 115.356 251.319 113.872Q254.37 112.388 257.457 110.98Q260.543 109.572 263.664 108.24Q266.784 106.907 269.936 105.653Q273.088 104.398 276.27 103.221Q279.452 102.043 282.662 100.945C282.127 102.191 281.691 102.658 280.693 103.555C280.306 103.902 280.207 104.077 280.114 104.583L280.469 105.756C274.677 115.212 267.287 123.202 260.318 131.742C252.374 141.477 244.582 151.589 237.074 161.665C233.269 166.77 229.723 171.995 226.256 177.332C223.067 182.239 220.106 188.577 215.76 192.487C210.827 196.924 199.283 202.621 193.043 205.499C189.252 207.247 185.049 208.832 181.632 211.263C179.455 212.811 178.525 215.446 176.538 217.124C174.137 219.15 171.381 220.769 168.965 222.795C160.646 229.772 152.678 236.888 143.933 243.375C145.399 244.827 146.376 245.816 146.387 247.963C146.398 250.041 145.259 251.821 143.81 253.222C142.246 254.733 140.351 255.859 138.469 256.92C137.494 256.354 138.101 255.823 136.76 255.662C132.927 257.246 129.567 260.209 126.884 263.318C128.991 266.93 131.264 269.064 135.206 270.633C136.2 271.029 137.685 271.311 138.563 271.89C139.429 272.461 140.139 273.676 140.75 274.515C141.395 273.023 143.564 269.873 143.789 268.623C143.918 267.905 143.481 266.87 143.255 266.188C143.524 265.301 143.753 265.016 144.477 264.44C146.225 263.904 147.903 264.184 149.498 265.079C150.371 265.569 151.249 266.323 151.595 267.288C151.977 268.354 151.751 269.48 151.159 270.41C149.973 272.271 148.663 274.009 147.53 275.918C146.448 275.084 145.968 274.513 144.596 274.333L144.404 274.81C147.487 278.416 154.027 275.722 154.954 279.522L154.674 280.253L152.509 281.097L152.475 281.467C153.043 281.782 153.467 281.933 154.091 282.126C154.833 282.355 155 282.475 155.465 283.061C155.299 284.303 154.061 285.031 153.077 285.767C145.06 291.766 135.332 294.72 126.505 299.154C125.543 297.765 124.623 296.296 123.539 295.001C122.022 294.715 120.465 294.244 118.939 294.624C118.226 295.126 118.058 295.541 117.731 296.337L117.699 296.006C117.448 296.683 117.394 296.871 117.447 297.622L117.236 297.95C114.159 293.504 111.728 287.614 107.396 284.26Z"/>
	<path fill="#200231" transform="matrix(0.172973 0 0 0.172973 0 -1.52588e-05)" d="M414.59 540.797L414.751 540.49L415.014 539.976C417.509 535.202 419.248 530.064 421.378 525.118L439.666 483.445C443.655 474.173 447.232 464.657 451.533 455.526C452.327 453.841 453.341 451.51 454.75 450.275C455.731 449.415 457.278 449.009 458.562 449.196C459.94 449.397 461.488 451.016 462.421 451.975C464.903 454.527 467.009 457.634 469.244 460.411Q475.935 468.642 482.536 476.945C486.341 483.113 493.262 489.394 498.075 495.031L499.459 496.922C503.053 506.57 520.41 523.062 527.411 531.797C533.408 541.095 541.245 549.249 548.116 557.93C549.787 560.04 551.975 562.243 553.359 564.508C529.297 585.413 497.283 601.654 467.603 612.845C464.647 610.784 461.311 604.651 459.129 601.547Q444.514 580.466 428.945 560.08C425.797 555.88 416.345 544.592 414.59 540.797Z"/>
</svg>
